<svg width="16" height="16" viewBox="0 0 16 16" fill="none" xmlns="http://www.w3.org/2000/svg">
<path id="@" d="M8.06691 16C6.91995 16 5.85583 15.7961 4.87455 15.3883C3.89327 14.9932 3.03305 14.4325 2.29391 13.7061C1.5675 12.9797 1.0004 12.1322 0.592593 11.1637C0.197531 10.1824 0 9.11828 0 7.97133C0 6.83712 0.203903 5.78574 0.611708 4.8172C1.01951 3.84867 1.58662 3.00757 2.31302 2.29391C3.03943 1.5675 3.89327 1.00677 4.87455 0.611709C5.85583 0.203903 6.91358 0 8.04779 0C9.22023 0 10.2907 0.210275 11.2593 0.630824C12.2278 1.05137 13.0625 1.63122 13.7634 2.37037C14.4771 3.09677 15.0251 3.93787 15.4074 4.89367C15.8025 5.83672 16 6.84349 16 7.91398C16 8.72959 15.8662 9.44325 15.5986 10.055C15.3437 10.6539 14.9741 11.1254 14.4898 11.4695C14.0056 11.8009 13.4321 11.9665 12.7694 11.9665C12.3616 11.9665 11.9665 11.8901 11.5842 11.7372C11.2019 11.5842 10.8769 11.3548 10.6093 11.049C10.3544 10.7431 10.1951 10.3672 10.1314 9.92115L10.4946 10.399C10.3162 10.7431 10.0741 11.0299 9.76822 11.2593C9.47511 11.4887 9.1374 11.6671 8.75508 11.7945C8.3855 11.9092 7.98407 11.9665 7.55078 11.9665C6.81163 11.9665 6.14257 11.7881 5.54361 11.4313C4.95739 11.0745 4.48586 10.5902 4.12903 9.9785C3.78495 9.36679 3.6129 8.67224 3.6129 7.89486C3.6129 7.11748 3.78495 6.42294 4.12903 5.81123C4.47312 5.18678 4.94464 4.68977 5.54361 4.32019C6.15532 3.95062 6.83712 3.76583 7.58901 3.76583C8.21346 3.76583 8.78057 3.89327 9.29032 4.14815C9.80008 4.39028 10.1824 4.728 10.4373 5.16129L10.2843 5.54361V3.95699H11.6989V9.08005C11.6989 9.55157 11.7945 9.90203 11.9857 10.1314C12.1896 10.3481 12.4636 10.4564 12.8076 10.4564C13.3047 10.4564 13.687 10.2525 13.9546 9.84468C14.2222 9.42413 14.356 8.78057 14.356 7.91398C14.356 7.00916 14.2031 6.17443 13.8973 5.4098C13.6041 4.63242 13.1836 3.95699 12.6356 3.38351C12.0876 2.79729 11.4249 2.34488 10.6476 2.02628C9.88292 1.69494 9.0227 1.52927 8.06691 1.52927C7.1366 1.52927 6.27638 1.69494 5.48626 2.02628C4.70888 2.34488 4.02708 2.79092 3.44086 3.3644C2.86738 3.93787 2.42135 4.6133 2.10275 5.39068C1.79689 6.16806 1.64397 7.0219 1.64397 7.95221C1.64397 8.86977 1.79689 9.72362 2.10275 10.5137C2.42135 11.3039 2.86738 11.992 3.44086 12.5783C4.01434 13.1772 4.68977 13.6424 5.46714 13.9737C6.25727 14.3051 7.13023 14.4707 8.08602 14.4707C8.67224 14.4707 9.23298 14.4006 9.76822 14.2605C10.3162 14.133 10.8068 13.9419 11.2401 13.687L11.9474 15.006C10.826 15.6687 9.53246 16 8.06691 16ZM7.66547 10.4564C8.137 10.4564 8.55755 10.3417 8.92712 10.1123C9.29669 9.88292 9.58343 9.57706 9.78734 9.19474C10.004 8.79968 10.1123 8.35364 10.1123 7.85663C10.1123 7.11748 9.88292 6.51215 9.42413 6.04062C8.96535 5.55635 8.37913 5.30785 7.66547 5.2951C7.20669 5.2951 6.78614 5.4098 6.40382 5.63919C6.03425 5.85583 5.74114 6.16169 5.52449 6.55675C5.32059 6.93907 5.21864 7.37873 5.21864 7.87575C5.21864 8.36002 5.32696 8.79968 5.54361 9.19474C5.76025 9.57706 6.05337 9.88292 6.42294 10.1123C6.79251 10.3417 7.20669 10.4564 7.66547 10.4564Z" fill="#9D9BA1"/>
</svg>
