<svg width="16" height="17" viewBox="0 0 16 17" fill="none" xmlns="http://www.w3.org/2000/svg">
<g id="Frame 8">
<g id="Iconly/Bulk/Plus">
<g id="Plus">
<path id="Path_34200" opacity="0.4" d="M11.7333 0.499939H4.26667C1.54311 0.499939 0 2.04305 0 4.76661V12.2333C0 14.9497 1.536 16.4999 4.26667 16.4999H11.7333C14.4569 16.4999 16 14.9497 16 12.2333V4.76661C16 2.04305 14.4569 0.499939 11.7333 0.499939Z" fill="#56555C"/>
<path id="Path_34201" d="M10.6564 9.0666H8.5996V11.1055C8.5996 11.4338 8.33115 11.6999 7.99999 11.6999C7.66883 11.6999 7.40037 11.4338 7.40037 11.1055V9.0666H5.34362C5.03473 9.03489 4.79999 8.77684 4.79999 8.46898C4.79999 8.16113 5.03473 7.90308 5.34362 7.87137H7.39392V5.83885C7.42591 5.53263 7.68621 5.29993 7.99676 5.29993C8.30731 5.29993 8.56762 5.53263 8.5996 5.83885V7.87137H10.6564C10.9652 7.90308 11.2 8.16113 11.2 8.46898C11.2 8.77684 10.9652 9.03489 10.6564 9.0666Z" fill="#56555C"/>
</g>
</g>
</g>
</svg>
