<svg width="16" height="17" viewBox="0 0 16 17" fill="none" xmlns="http://www.w3.org/2000/svg">
<g id="Frame 8">
<g id="Iconly/Bulk/Plus">
<g id="Plus">
<path id="Path_34200" opacity="0.4" d="M11.7333 0.5H4.26667C1.54311 0.5 0 2.04311 0 4.76667V12.2333C0 14.9498 1.536 16.5 4.26667 16.5H11.7333C14.4569 16.5 16 14.9498 16 12.2333V4.76667C16 2.04311 14.4569 0.5 11.7333 0.5Z" fill="#5577FF"/>
<path id="Path_34201" d="M10.6564 9.06666H8.5996V11.1056C8.5996 11.4339 8.33115 11.7 7.99999 11.7C7.66883 11.7 7.40037 11.4339 7.40037 11.1056V9.06666H5.34362C5.03473 9.03495 4.79999 8.7769 4.79999 8.46904C4.79999 8.16119 5.03473 7.90314 5.34362 7.87143H7.39392V5.83891C7.42591 5.53269 7.68621 5.29999 7.99676 5.29999C8.30731 5.29999 8.56762 5.53269 8.5996 5.83891V7.87143H10.6564C10.9652 7.90314 11.2 8.16119 11.2 8.46904C11.2 8.7769 10.9652 9.03495 10.6564 9.06666Z" fill="#5577FF"/>
</g>
</g>
</g>
</svg>
