<svg width="22" height="22" viewBox="0 0 22 22" fill="none" xmlns="http://www.w3.org/2000/svg">
<g id="Category">
<g id="Iconly/Bulk/Category">
<g id="Category_2">
<path id="Fill-1" opacity="0.4" d="M14.7359 1.83334H17.8397C19.1251 1.83334 20.1667 2.88371 20.1667 4.17998V7.30999C20.1667 8.60626 19.1251 9.65662 17.8397 9.65662H14.7359C13.4505 9.65662 12.4089 8.60626 12.4089 7.30999V4.17998C12.4089 2.88371 13.4505 1.83334 14.7359 1.83334Z" fill="#9896A3"/>
<path id="Combined-Shape" d="M7.26403 12.3434C8.54945 12.3434 9.59102 13.3938 9.59102 14.69V17.82C9.59102 19.1154 8.54945 20.1667 7.26403 20.1667H4.16023C2.87482 20.1667 1.83325 19.1154 1.83325 17.82V14.69C1.83325 13.3938 2.87482 12.3434 4.16023 12.3434H7.26403ZM17.8396 12.3434C19.125 12.3434 20.1666 13.3938 20.1666 14.69V17.82C20.1666 19.1154 19.125 20.1667 17.8396 20.1667H14.7358C13.4504 20.1667 12.4088 19.1154 12.4088 17.82V14.69C12.4088 13.3938 13.4504 12.3434 14.7358 12.3434H17.8396ZM7.26403 1.83334C8.54945 1.83334 9.59102 2.88371 9.59102 4.17998V7.30999C9.59102 8.60626 8.54945 9.65662 7.26403 9.65662H4.16023C2.87482 9.65662 1.83325 8.60626 1.83325 7.30999V4.17998C1.83325 2.88371 2.87482 1.83334 4.16023 1.83334H7.26403Z" fill="#9896A3"/>
</g>
</g>
</g>
</svg>
