<svg width="24" height="24" viewBox="0 0 24 24" fill="none" xmlns="http://www.w3.org/2000/svg">
<g id="Time Circle">
<g id="Iconly/Bulk/Time-Circle">
<g id="Time-Circle">
<path id="Fill-1" opacity="0.4" d="M21.8567 11.8211C21.8567 17.3451 17.3797 21.8211 11.8567 21.8211C6.33369 21.8211 1.85669 17.3451 1.85669 11.8211C1.85669 6.29914 6.33369 1.82114 11.8567 1.82114C17.3797 1.82114 21.8567 6.29914 21.8567 11.8211Z" fill="#56555C"/>
<path id="Fill-4" d="M15.4304 15.6356C15.2994 15.6356 15.1674 15.6016 15.0464 15.5306L11.1204 13.1886C10.8944 13.0526 10.7554 12.8076 10.7554 12.5436V7.49664C10.7554 7.08264 11.0914 6.74664 11.5054 6.74664C11.9194 6.74664 12.2554 7.08264 12.2554 7.49664V12.1176L15.8154 14.2406C16.1704 14.4536 16.2874 14.9136 16.0754 15.2696C15.9344 15.5046 15.6854 15.6356 15.4304 15.6356Z" fill="#56555C"/>
</g>
</g>
</g>
</svg>
