<svg width="38" height="38" viewBox="0 0 38 38" fill="none" xmlns="http://www.w3.org/2000/svg">
<g id="Frame">
<path id="Vector" d="M14.25 34.8333H23.75C31.6667 34.8333 34.8333 31.6667 34.8333 23.75V14.25C34.8333 6.33333 31.6667 3.16667 23.75 3.16667H14.25C6.33334 3.16667 3.16667 6.33333 3.16667 14.25V23.75C3.16667 31.6667 6.33334 34.8333 14.25 34.8333Z" stroke="url(#paint0_linear_105_66)" stroke-width="1.5" stroke-linecap="round" stroke-linejoin="round"/>
<path id="Vector_2" d="M3.16667 20.5833H9.12001C10.3233 20.5833 11.4158 21.2642 11.9542 22.3408L13.3633 25.175C14.25 26.9167 15.8333 26.9167 16.2133 26.9167H21.8025C23.0058 26.9167 24.0983 26.2358 24.6367 25.1592L26.0458 22.325C26.5842 21.2483 27.6767 20.5675 28.88 20.5675H34.8017" stroke="url(#paint1_linear_105_66)" stroke-width="1.5" stroke-linecap="round" stroke-linejoin="round"/>
</g>
<defs>
<linearGradient id="paint0_linear_105_66" x1="19" y1="3.16667" x2="19" y2="34.8333" gradientUnits="userSpaceOnUse">
<stop stop-color="#EC31CD"/>
<stop offset="1" stop-color="#9AB6F5"/>
</linearGradient>
<linearGradient id="paint1_linear_105_66" x1="18.9842" y1="20.5675" x2="18.9842" y2="26.9167" gradientUnits="userSpaceOnUse">
<stop stop-color="#EC31CD"/>
<stop offset="1" stop-color="#9AB6F5"/>
</linearGradient>
</defs>
</svg>
