<svg width="22" height="22" viewBox="0 0 22 22" fill="none" xmlns="http://www.w3.org/2000/svg">
<g id="Paper">
<g id="Iconly/Bulk/Paper">
<g id="Paper_2">
<path id="Fill-3" opacity="0.4" d="M17.2414 8.26917C16.8275 8.26917 16.2793 8.26 15.5967 8.26C13.9321 8.26 12.5634 6.88225 12.5634 5.202V2.254C12.5634 2.02209 12.3782 1.83325 12.1486 1.83325H7.29997C5.03721 1.83325 3.20831 3.69042 3.20831 5.9665V15.8436C3.20831 18.2315 5.12435 20.1666 7.48876 20.1666H14.7091C16.9636 20.1666 18.7916 18.3213 18.7916 16.0434V8.68167C18.7916 8.44883 18.6074 8.26092 18.3769 8.26183C17.9893 8.26458 17.5246 8.26917 17.2414 8.26917Z" fill="#56555C"/>
<path id="Fill-1" opacity="0.4" d="M14.7437 2.3533C14.4696 2.06822 13.9911 2.26438 13.9911 2.65947V5.07672C13.9911 6.09055 14.8262 6.92472 15.84 6.92472C16.4789 6.93205 17.3663 6.93388 18.1198 6.93205C18.5057 6.93113 18.7018 6.47005 18.4342 6.19138C17.4671 5.1858 15.7355 3.38363 14.7437 2.3533Z" fill="#56555C"/>
<path id="Combined-Shape" d="M13.2165 13.6516C13.5932 13.6516 13.8994 13.9578 13.8994 14.3345C13.8994 14.7113 13.5932 15.0165 13.2165 15.0165H8.22616C7.84941 15.0165 7.54416 14.7113 7.54416 14.3345C7.54416 13.9578 7.84941 13.6516 8.22616 13.6516H13.2165ZM11.329 9.07361C11.7057 9.07361 12.0119 9.37978 12.0119 9.75653C12.0119 10.1333 11.7057 10.4385 11.329 10.4385H8.22607C7.84932 10.4385 7.54407 10.1333 7.54407 9.75653C7.54407 9.37978 7.84932 9.07361 8.22607 9.07361H11.329Z" fill="#56555C"/>
</g>
</g>
</g>
</svg>
