<svg width="22" height="22" viewBox="0 0 22 22" fill="none" xmlns="http://www.w3.org/2000/svg">
<g id="Setting">
<g id="Iconly/Bulk/Setting">
<g id="Setting_2">
<path id="Path" d="M11.011 13.5942C9.54019 13.5942 8.35046 12.4484 8.35046 11.0092C8.35046 9.57004 9.54019 8.41504 11.011 8.41504C12.4817 8.41504 13.6434 9.57004 13.6434 11.0092C13.6434 12.4484 12.4817 13.5942 11.011 13.5942Z" fill="black"/>
<path id="Path_2" opacity="0.4" d="M19.4609 13.1725C19.2829 12.8975 19.0299 12.6225 18.702 12.4484C18.4397 12.32 18.2711 12.1092 18.1212 11.8617C17.6435 11.0734 17.9245 10.0375 18.7208 9.57004C19.6576 9.04754 19.9574 7.88337 19.414 6.97587L18.7864 5.89421C18.2524 4.98671 17.0814 4.66587 16.154 5.19754C15.3296 5.63754 14.271 5.34421 13.7932 4.56504C13.6434 4.30837 13.559 4.03337 13.5778 3.75837C13.6059 3.40087 13.4935 3.06171 13.3248 2.78671C12.9782 2.21837 12.3506 1.83337 11.6574 1.83337H10.3365C9.65262 1.85171 9.02496 2.21837 8.67835 2.78671C8.50036 3.06171 8.39731 3.40087 8.41605 3.75837C8.43478 4.03337 8.35047 4.30837 8.20058 4.56504C7.72282 5.34421 6.66424 5.63754 5.84923 5.19754C4.91244 4.66587 3.75081 4.98671 3.20747 5.89421L2.57982 6.97587C2.04585 7.88337 2.34562 9.04754 3.27305 9.57004C4.06932 10.0375 4.35036 11.0734 3.88196 11.8617C3.72271 12.1092 3.55409 12.32 3.29178 12.4484C2.97327 12.6225 2.69223 12.8975 2.54235 13.1725C2.19573 13.7409 2.21447 14.4559 2.56108 15.0517L3.20747 16.1517C3.55409 16.7384 4.20047 17.105 4.87496 17.105C5.19347 17.105 5.56819 17.0134 5.86797 16.83C6.10217 16.6742 6.3832 16.6192 6.69235 16.6192C7.61977 16.6192 8.39731 17.38 8.41605 18.2875C8.41605 19.3417 9.2779 20.1667 10.3646 20.1667H11.6386C12.7159 20.1667 13.5778 19.3417 13.5778 18.2875C13.6059 17.38 14.3834 16.6192 15.3109 16.6192C15.6106 16.6192 15.8917 16.6742 16.1352 16.83C16.435 17.0134 16.8004 17.105 17.1282 17.105C17.7934 17.105 18.4397 16.7384 18.7864 16.1517L19.4421 15.0517C19.7794 14.4375 19.8075 13.7409 19.4609 13.1725Z" fill="black"/>
</g>
</g>
</g>
</svg>
